# xmcd
#
# Track frame offsets: 
#        150
#        43176
#        76665
#        100217
#        136258
#        175073
#        209405
#        247376
#
# Disc length: 4040 seconds
#
# Revision: 0
# Processed by: cddbd v1.4PL0 Copyright (c) Steve Scherf et al.
# Submitted via: ExactAudioCopy v0.90a11
#
DISCID=6b0fc608
DTITLE=Bluegrass Underground - Exit Inn - Nashville, TN - 01-31-01 - D
DTITLE=isc 1 of 2
DYEAR=1900
DGENRE=
TTITLE0=Wheel Hoss
TTITLE1=Curve in the Road
TTITLE2=Cherokee Shuffle
TTITLE3=Seven Daffodils
TTITLE4=Blackheaded Woman (with Vassar Clements on fiddle)
TTITLE5=I Know You Rider (with Vassar Clements on fiddle)
TTITLE6=Midnight Moonlight (with Vassar Clements on fiddle)
TTITLE7=Train 45 > Orange Blossom Spatial (with Vassar Clements on fid
TTITLE7=dle)
EXTD=
EXTT0=
EXTT1=
EXTT2=
EXTT3=
EXTT4=
EXTT5=
EXTT6=
EXTT7=
PLAYORDER=
